<svg width="48" height="48" viewBox="0 0 48 48" fill="none" xmlns="http://www.w3.org/2000/svg">
<path d="M36 2.39999H12C10.727 2.39999 9.50607 2.90571 8.6059 3.80588C7.70572 4.70606 7.20001 5.92695 7.20001 7.19999V40.8C7.20001 42.073 7.70572 43.2939 8.6059 44.1941C9.50607 45.0943 10.727 45.6 12 45.6H36C37.2731 45.6 38.4939 45.0943 39.3941 44.1941C40.2943 43.2939 40.8 42.073 40.8 40.8V7.19999C40.8 5.92695 40.2943 4.70606 39.3941 3.80588C38.4939 2.90571 37.2731 2.39999 36 2.39999ZM12 9.59999H24V12H12V9.59999ZM12 14.4H24V16.8H12V14.4ZM12 19.2H24V21.6H12V19.2ZM36 36H12V33.6H36V36ZM36 31.2H12V28.8H36V31.2ZM36 26.4H12V24H36V26.4ZM36 21.6H26.4V9.59999H36V21.6Z" fill="#FAFAFA"/>
</svg>
