<svg width="12" height="12" viewBox="0 0 12 12" fill="none" xmlns="http://www.w3.org/2000/svg">
<path d="M5.9997 0C9.31133 0 12 2.68867 12 5.9997C12 9.31133 9.31133 12 5.9997 12C2.68867 12 0 9.31133 0 5.9997C0 2.68867 2.68867 0 5.9997 0ZM5.9997 5.36114L4.36669 3.72753C4.27907 3.63991 4.16324 3.5961 4.04801 3.5961C3.80555 3.5961 3.5979 3.79055 3.5979 4.04561C3.5979 4.16144 3.64171 4.27607 3.72933 4.36429L5.36294 5.9979L3.72573 7.63511C3.63751 7.72333 3.5937 7.83916 3.5937 7.95379C3.5937 8.21005 3.80375 8.4039 4.04441 8.4039C4.15964 8.4039 4.27487 8.36009 4.36249 8.27247L5.9997 6.63526L7.63751 8.27247C7.72513 8.36009 7.84036 8.4039 7.95559 8.4039C8.19625 8.4039 8.4057 8.21005 8.4057 7.95379C8.4057 7.83916 8.36189 7.72333 8.27367 7.63511L6.63706 5.9979L8.26767 4.36729C8.35529 4.27907 8.3991 4.16444 8.3991 4.04861C8.3991 3.79355 8.19145 3.5985 7.94899 3.5985C7.83376 3.5985 7.71793 3.64231 7.63031 3.73053L5.9997 5.36114Z" fill="currentColor"/>
</svg>
