<svg width="17" height="16" viewBox="0 0 17 16" fill="none" xmlns="http://www.w3.org/2000/svg">
<g clip-path="url(#clip0_9_187)">
<path d="M10.5562 7.99999C10.5562 9.10266 9.65882 9.99999 8.55615 9.99999C7.45349 9.99999 6.55615 9.10266 6.55615 7.99999C6.55615 6.89732 7.45349 5.99999 8.55615 5.99999C9.65882 5.99999 10.5562 6.89732 10.5562 7.99999ZM16.5562 7.70066C16.5562 7.70066 13.7215 13.3333 8.56615 13.3333C3.77949 13.3333 0.556152 7.70066 0.556152 7.70066C0.556152 7.70066 3.52015 2.66666 8.56615 2.66666C13.6955 2.66666 16.5562 7.70066 16.5562 7.70066ZM11.8895 7.99999C11.8895 6.16199 10.3942 4.66666 8.55615 4.66666C6.71815 4.66666 5.22282 6.16199 5.22282 7.99999C5.22282 9.83799 6.71815 11.3333 8.55615 11.3333C10.3942 11.3333 11.8895 9.83799 11.8895 7.99999Z" fill="#757575"/>
</g>
<defs>
<clipPath id="clip0_9_187">
<rect width="16" height="16" fill="white" transform="translate(0.556152)"/>
</clipPath>
</defs>
</svg>
