<svg width="24" height="24" viewBox="0 0 24 24" fill="none" xmlns="http://www.w3.org/2000/svg">
<g clip-path="url(#clip0_53_275)">
<path d="M12.081 7.53299C9.59625 7.53299 7.581 9.54824 7.581 12.033C7.581 14.5177 9.59625 16.533 12.081 16.533C14.5657 16.533 16.581 14.5185 16.581 12.033C16.581 9.54749 14.5665 7.53299 12.081 7.53299ZM12.081 15.033C10.4265 15.033 9.0465 13.6545 9.0465 12C9.0465 10.3455 10.392 8.99999 12.0465 8.99999C13.701 8.99999 15.0465 10.3455 15.0465 12C15.0465 13.6545 13.7355 15.033 12.081 15.033ZM23.9925 11.826C23.9835 11.7885 23.988 11.748 23.9767 11.7112C23.9722 11.6955 23.9617 11.6865 23.9565 11.673C23.9482 11.652 23.9505 11.6265 23.9392 11.6062C21.7575 6.61124 17.0565 3.73724 12.0465 3.73724C7.0365 3.73724 2.241 6.60674 0.058497 11.6017C0.0494969 11.6227 0.050997 11.6445 0.0427469 11.6685C0.037497 11.6835 0.0269969 11.691 0.0217469 11.7052C0.0104969 11.7427 0.0149969 11.7825 0.00749695 11.8207C-0.00600305 11.8882 -0.0187531 11.9542 -0.0187531 12.0225C-0.0187531 12.0907 -0.00600305 12.1552 0.00749695 12.2235C0.0149969 12.261 0.00974695 12.3022 0.0217469 12.3375C0.0262469 12.3547 0.037497 12.3615 0.0427469 12.3765C0.0502469 12.3967 0.048747 12.4222 0.058497 12.4432C2.241 17.4367 6.99 20.2642 12 20.2642C17.01 20.2642 21.7582 17.4427 23.94 12.4477C23.9512 12.426 23.949 12.4042 23.9572 12.3802C23.9625 12.3675 23.9722 12.3577 23.9767 12.3427C23.988 12.306 23.985 12.2662 23.9925 12.2272C24.006 12.1597 24.018 12.0945 24.018 12.0247C24.018 11.9587 24.0052 11.8935 23.9917 11.8252L23.9925 11.826ZM12 18.7642C7.75125 18.7642 3.5685 16.5247 1.5135 12.0217C3.549 7.53449 7.78725 5.23649 12.0465 5.23649C16.305 5.23649 20.4487 7.53674 22.485 12.0262C20.4502 16.5127 16.26 18.7642 12 18.7642Z" fill="#424242"/>
</g>
<defs>
<clipPath id="clip0_53_275">
<rect width="24" height="24" fill="white"/>
</clipPath>
</defs>
</svg>
