<svg width="20" height="20" viewBox="0 0 20 20" fill="none" xmlns="http://www.w3.org/2000/svg">
<path d="M9.76953 0.00352018C5.66445 0.126567 2.5 3.70782 2.5 7.81446V18.1238C2.5 18.6809 3.17305 18.9594 3.5668 18.5656L4.54023 17.8418C4.80039 17.6484 5.16523 17.6859 5.38047 17.9281L7.0582 19.8168C7.30234 20.0609 7.69805 20.0609 7.94219 19.8168L9.53281 18.0258C9.78164 17.7457 10.2187 17.7457 10.4672 18.0258L12.0578 19.8168C12.302 20.0609 12.6977 20.0609 12.9418 19.8168L14.6195 17.9281C14.8348 17.6859 15.1996 17.6481 15.4598 17.8418L16.4332 18.5656C16.827 18.9594 17.5 18.6805 17.5 18.1238V7.5C17.5 3.28125 14.0168 -0.123824 9.76953 0.00352018ZM7.5 8.75C6.80977 8.75 6.25 8.19024 6.25 7.5C6.25 6.80977 6.80977 6.25 7.5 6.25C8.19023 6.25 8.75 6.80977 8.75 7.5C8.75 8.19024 8.19023 8.75 7.5 8.75ZM12.5 8.75C11.8098 8.75 11.25 8.19024 11.25 7.5C11.25 6.80977 11.8098 6.25 12.5 6.25C13.1902 6.25 13.75 6.80977 13.75 7.5C13.75 8.19024 13.1902 8.75 12.5 8.75Z" fill="#FAFAFA"/>
</svg>
