<svg width="20" height="20" viewBox="0 0 20 20" fill="none" xmlns="http://www.w3.org/2000/svg">
<g clip-path="url(#clip0_219_895)">
<path d="M9.95245 0.714294C7.49388 0.726903 5.14066 1.71403 3.40887 3.4592C1.67708 5.20437 0.708082 7.56511 0.714386 10.0237C0.72069 12.4823 1.70178 14.838 3.4425 16.5743C5.18322 18.3106 7.54147 19.2856 10.0001 19.2856C12.4587 19.2856 14.8169 18.3106 16.5576 16.5743C18.2983 14.838 19.2794 12.4823 19.2857 10.0237C19.292 7.56511 18.323 5.20437 16.5913 3.4592C14.8595 1.71403 12.5062 0.726903 10.0477 0.714294H9.95245Z" stroke="#FAFAFA"/>
<path d="M10.0001 0.714294V19.2857M19.2858 10H0.714355M2.80959 4.28572C4.90829 5.78297 7.42203 6.58773 10.0001 6.58773C12.5781 6.58773 15.0918 5.78297 17.1905 4.28572M17.1905 15.7143C15.0918 14.217 12.5781 13.4123 10.0001 13.4123C7.42203 13.4123 4.90829 14.217 2.80959 15.7143M9.28578 0.95239C7.96253 2.06991 6.89906 3.4627 6.16958 5.03359C5.44009 6.60448 5.06217 8.31562 5.06217 10.0476C5.06217 11.7796 5.44009 13.4908 6.16958 15.0617C6.89906 16.6325 7.96253 18.0253 9.28578 19.1429M10.7143 19.1429C12.0376 18.0253 13.1011 16.6325 13.8306 15.0617C14.56 13.4908 14.938 11.7796 14.938 10.0476C14.938 8.31562 14.56 6.60448 13.8306 5.03359C13.1011 3.4627 12.0376 2.06991 10.7143 0.95239" stroke="#FAFAFA"/>
</g>
<defs>
<clipPath id="clip0_219_895">
<rect width="20" height="20" fill="white"/>
</clipPath>
</defs>
</svg>
