<svg width="17" height="16" viewBox="0 0 17 16" fill="none" xmlns="http://www.w3.org/2000/svg">
<g clip-path="url(#clip0_9_189)">
<path d="M0.684096 6.08C0.865429 6.77334 1.2121 7.376 1.7241 7.888L8.5561 14.96L15.3881 7.888C15.9001 7.376 16.2468 6.77334 16.4281 6.08C16.6094 5.38667 16.6094 4.69867 16.4281 4.016C16.2468 3.33334 15.9001 2.736 15.3881 2.224C14.8761 1.712 14.2788 1.36534 13.5961 1.184C12.9134 1.00267 12.2201 1.00267 11.5161 1.184C10.8121 1.36534 10.2148 1.712 9.7241 2.224L8.5561 3.632L7.3881 2.224C6.8761 1.712 6.27876 1.36534 5.5961 1.184C4.91343 1.00267 4.22543 1.00267 3.5321 1.184C2.83876 1.36534 2.2361 1.712 1.7241 2.224C1.2121 2.736 0.865429 3.33334 0.684096 4.016C0.502762 4.69867 0.502762 5.38667 0.684096 6.08Z" fill="#757575"/>
</g>
<defs>
<clipPath id="clip0_9_189">
<rect width="16" height="16" fill="white" transform="translate(0.556152)"/>
</clipPath>
</defs>
</svg>
