<svg width="32" height="136" viewBox="0 0 32 136" fill="none" xmlns="http://www.w3.org/2000/svg">
<path d="M16 32C24.8366 32 32 24.8366 32 16C32 7.16344 24.8366 0 16 0C7.16344 0 0 7.16344 0 16C0 24.8366 7.16344 32 16 32Z" fill="currentColor"/>
<path d="M16 83.9592C24.8366 83.9592 32 76.7958 32 67.9592C32 59.1227 24.8366 51.9592 16 51.9592C7.16344 51.9592 0 59.1227 0 67.9592C0 76.7958 7.16344 83.9592 16 83.9592Z" fill="currentColor"/>
<path d="M16 135.918C24.8366 135.918 32 128.755 32 119.918C32 111.082 24.8366 103.918 16 103.918C7.16344 103.918 0 111.082 0 119.918C0 128.755 7.16344 135.918 16 135.918Z" fill="currentColor"/>
</svg>
