<svg width="20" height="20" viewBox="0 0 20 20" fill="none" xmlns="http://www.w3.org/2000/svg">
<g clip-path="url(#clip0_18_321)">
<path d="M18.7082 9.66668L2.87484 2.16668L2.49984 2.08334C2.27882 2.08334 2.06686 2.17114 1.91058 2.32742C1.7543 2.4837 1.6665 2.69566 1.6665 2.91668L3.87484 9.58334H9.99984C10.2176 9.59349 10.4237 9.68454 10.5778 9.83868C10.732 9.99281 10.823 10.1989 10.8332 10.4167C10.8332 10.6377 10.7454 10.8497 10.5891 11.0059C10.4328 11.1622 10.2209 11.25 9.99984 11.25H3.87484L1.6665 17.9167C1.6665 18.1377 1.7543 18.3497 1.91058 18.5059C2.06686 18.6622 2.27882 18.75 2.49984 18.75L2.87484 18.6667L18.7082 11.1667C18.8491 11.0984 18.9679 10.9919 19.051 10.8593C19.1342 10.7266 19.1783 10.5732 19.1783 10.4167C19.1783 10.2601 19.1342 10.1067 19.051 9.9741C18.9679 9.84146 18.8491 9.73491 18.7082 9.66668Z" fill="#FAFAFA"/>
</g>
<defs>
<clipPath id="clip0_18_321">
<rect width="20" height="20" fill="white"/>
</clipPath>
</defs>
</svg>
