<svg width="24" height="24" viewBox="0 0 24 24" fill="none" xmlns="http://www.w3.org/2000/svg">
<path d="M18.0001 1.2H6.0001C5.36358 1.2 4.75313 1.45285 4.30304 1.90294C3.85295 2.35303 3.6001 2.96348 3.6001 3.6V20.4C3.6001 21.0365 3.85295 21.647 4.30304 22.0971C4.75313 22.5471 5.36358 22.8 6.0001 22.8H18.0001C18.6366 22.8 19.2471 22.5471 19.6972 22.0971C20.1472 21.647 20.4001 21.0365 20.4001 20.4V3.6C20.4001 2.96348 20.1472 2.35303 19.6972 1.90294C19.2471 1.45285 18.6366 1.2 18.0001 1.2ZM6.0001 4.8H12.0001V6H6.0001V4.8ZM6.0001 7.2H12.0001V8.4H6.0001V7.2ZM6.0001 9.6H12.0001V10.8H6.0001V9.6ZM18.0001 18H6.0001V16.8H18.0001V18ZM18.0001 15.6H6.0001V14.4H18.0001V15.6ZM18.0001 13.2H6.0001V12H18.0001V13.2ZM18.0001 10.8H13.2001V4.8H18.0001V10.8Z" fill="#FAFAFA"/>
</svg>
