<svg width="20" height="20" viewBox="0 0 20 20" fill="none" xmlns="http://www.w3.org/2000/svg">
<path d="M17.5 16.6667V7.01167C17.5 6.79067 17.4121 6.57874 17.2558 6.4225L13.5775 2.74417C13.4213 2.58788 13.2093 2.50005 12.9883 2.5H3.33333C3.11232 2.5 2.90036 2.5878 2.74408 2.74408C2.5878 2.90036 2.5 3.11232 2.5 3.33333V16.6667C2.5 16.8877 2.5878 17.0996 2.74408 17.2559C2.90036 17.4122 3.11232 17.5 3.33333 17.5H16.6667C16.8877 17.5 17.0996 17.4122 17.2559 17.2559C17.4122 17.0996 17.5 16.8877 17.5 16.6667ZM7.5 6.66667H10.8333C11.0543 6.66667 11.2663 6.75446 11.4226 6.91074C11.5789 7.06702 11.6667 7.27899 11.6667 7.5C11.6667 7.72101 11.5789 7.93297 11.4226 8.08926C11.2663 8.24554 11.0543 8.33333 10.8333 8.33333H7.5C7.27899 8.33333 7.06702 8.24554 6.91074 8.08926C6.75446 7.93297 6.66667 7.72101 6.66667 7.5C6.66667 7.27899 6.75446 7.06702 6.91074 6.91074C7.06702 6.75446 7.27899 6.66667 7.5 6.66667ZM13.3333 15.8333H6.66667V12.5C6.66667 12.279 6.75446 12.067 6.91074 11.9107C7.06702 11.7545 7.27899 11.6667 7.5 11.6667H12.5C12.721 11.6667 12.933 11.7545 13.0893 11.9107C13.2455 12.067 13.3333 12.279 13.3333 12.5V15.8333Z" fill="currentColor"/>
</svg>
