<svg width="24" height="24" viewBox="0 0 24 24" fill="none" xmlns="http://www.w3.org/2000/svg">
<g clip-path="url(#clip0_34_1245)">
<path d="M23.111 20.0578L18.134 15.0808C19.099 13.5608 19.657 11.7588 19.657 9.82976C19.657 4.40976 15.248 -0.000244141 9.828 -0.000244141C4.408 -0.000244141 0 4.40976 0 9.82976C0 15.2498 4.408 19.6598 9.829 19.6598C11.663 19.6598 13.381 19.1548 14.851 18.2768L19.872 23.2978C22.016 25.4388 25.256 22.2018 23.111 20.0578ZM3.047 9.82976C3.047 6.09076 6.09 3.04776 9.829 3.04776C13.568 3.04776 16.611 6.08976 16.611 9.82976C16.611 13.5698 13.568 16.6118 9.829 16.6118C6.09 16.6118 3.047 13.5688 3.047 9.82976Z" fill="#FAFAFA"/>
</g>
<defs>
<clipPath id="clip0_34_1245">
<rect width="24" height="24.0006" fill="white" transform="translate(0 -0.000244141)"/>
</clipPath>
</defs>
</svg>
