<svg width="32" height="32" viewBox="0 0 32 32" fill="none" xmlns="http://www.w3.org/2000/svg">
<path d="M16.4918 0.495483C8.00667 0.495483 1.13184 7.37032 1.13184 15.8555C1.13184 24.3406 8.00667 31.2155 16.4918 31.2155C24.977 31.2155 31.8518 24.3406 31.8518 15.8555C31.8518 7.37032 24.977 0.495483 16.4918 0.495483ZM16.4918 6.44129C19.5019 6.44129 21.9422 8.88155 21.9422 11.8916C21.9422 14.9017 19.5019 17.3419 16.4918 17.3419C13.4818 17.3419 11.0415 14.9017 11.0415 11.8916C11.0415 8.88155 13.4818 6.44129 16.4918 6.44129ZM16.4918 27.7471C12.8562 27.7471 9.59842 26.0996 7.41829 23.5231C8.58267 21.3306 10.8619 19.8194 13.5189 19.8194C13.6676 19.8194 13.8162 19.8441 13.9587 19.8875C14.7638 20.1476 15.6062 20.3148 16.4918 20.3148C17.3775 20.3148 18.226 20.1476 19.025 19.8875C19.1674 19.8441 19.3161 19.8194 19.4647 19.8194C22.1218 19.8194 24.401 21.3306 25.5654 23.5231C23.3853 26.0996 20.1274 27.7471 16.4918 27.7471Z" fill="currentColor"/>
</svg>
